<?xml version="1.0" standalone="no"?>
<!DOCTYPE svg PUBLIC "-//W3C//DTD SVG 20010904//EN"
 "http://www.w3.org/TR/2001/REC-SVG-20010904/DTD/svg10.dtd">
<svg version="1.0" xmlns="http://www.w3.org/2000/svg"
 width="16.000000pt" height="16.000000pt" viewBox="0 0 16.000000 16.000000"
 preserveAspectRatio="xMidYMid meet">

<g transform="translate(0.000000,16.000000) scale(0.100000,-0.100000)"
fill="#000000" stroke="none">
<path d="M12 148 c-18 -18 -14 -46 7 -58 25 -13 27 -13 45 6 15 14 17 14 32 0
18 -19 20 -19 45 -6 10 6 19 19 19 28 0 40 -50 57 -70 25 -10 -17 -10 -17 -20
0 -13 20 -41 22 -58 5z"/>
<path d="M12 53 c7 -9 7 -17 -1 -26 -14 -18 -2 -30 16 -16 9 9 17 8 27 0 12
-10 14 -6 13 22 -1 30 -3 33 -33 33 -26 0 -31 -3 -22 -13z"/>
<path d="M93 33 c-1 -28 1 -32 13 -22 10 8 18 9 27 0 18 -14 30 -2 16 16 -9 9
-8 17 0 27 10 12 6 14 -22 13 -31 -1 -33 -3 -34 -34z"/>
</g>
</svg>
